<svg id="Capa_1" enable-background="new 0 0 512.014 512.014" height="512" viewBox="0 0 512.014 512.014" width="512" xmlns="http://www.w3.org/2000/svg"><g><g><path d="m90.007 356.014c-11.05 0-20 8.95-20 20v67h40v-67c0-11.05-8.95-20-20-20z" fill="#ff9256"/><path d="m462.007 442.014 20 40h-186l-20 20h-40l-20-20h-186l20-40c26.588 0 59.119-2.905 85.05-8.66 38.484-8.033 45.239-11.34 60.95-11.34 33.14 0 60 17.91 60 40 0-22.09 26.86-40 60-40 15.705 0 22.433 3.301 60.95 11.34 25.96 5.76 58.46 8.66 85.05 8.66z" fill="#eefaff"/><path d="m299.517 108.994c10.65 22.31 6.74 49.83-11.73 68.3s-45.99 22.38-68.29 11.73z" fill="#ffee80"/><g fill="#ff9256"><path d="m217.077 50.014-28.28-28.28c-15.62-15.63-40.95-15.63-56.57 0-15.62 15.62-15.62 40.94 0 56.56 38.754 38.768 25.389 25.398 28.28 28.29.079 3.833-21.021 63.829 28.29 113.14 186.783-186.8 106.92-106.927 141.42-141.43-49.105-49.086-109.582-28.207-113.14-28.28z"/><circle cx="30.007" cy="216.014" r="20"/></g></g><g><path d="m398.007 132.014c0-5.522-4.477-10-10-10h-40c-5.523 0-10 4.478-10 10s4.477 10 10 10h40c5.523 0 10-4.477 10-10z"/><path d="m238.007 232.014v40c0 5.522 4.477 10 10 10s10-4.478 10-10v-40c0-5.522-4.477-10-10-10s-10 4.478-10 10z"/><path d="m306.997 213.705c-2.762-4.783-8.878-6.423-13.66-3.66-4.783 2.762-6.422 8.877-3.66 13.66l20 34.64c2.771 4.799 8.891 6.414 13.66 3.66 4.783-2.762 6.422-8.877 3.66-13.66z"/><path d="m364.587 210.755c4.772 2.755 10.892 1.134 13.66-3.66 2.762-4.783 1.123-10.898-3.66-13.66l-34.64-20c-4.782-2.76-10.899-1.123-13.66 3.66-2.762 4.783-1.123 10.898 3.66 13.66z"/><circle cx="133.007" cy="482.014" r="10"/><path d="m502.007 472.014h-13.82l-17.236-34.472c-1.694-3.389-5.157-5.528-8.944-5.528-27.708 0-59.468-3.228-82.886-8.423-37.593-7.787-45.688-11.577-63.114-11.577-25.757 0-47.852 9.457-60 23.881-12.148-14.424-34.243-23.881-60-23.881-17.406 0-25.37 3.759-63.117 11.577-4.044.898-8.357 1.74-12.883 2.523v-50.1c0-14.168-9.876-26.065-23.103-29.191l-47.259-108.174c6.426-5.604 10.362-13.823 10.362-22.635 0-5.773-1.643-11.167-4.48-15.748l80.488-104.038 13.638 13.643c.078 2.201-19.919 64.935 32.073 116.925 1.953 1.952 4.512 2.929 7.071 2.929s5.119-.977 7.071-2.929l25.991-25.992c25.527 9.091 53.974 2.587 72.999-16.437 19.223-19.224 25.42-47.783 16.441-73.009l25.989-25.991c1.875-1.876 2.929-4.42 2.929-7.072s-1.054-5.196-2.93-7.071c-51.896-51.88-114.867-31.994-116.925-32.067l-24.492-24.491c-19.536-19.55-51.172-19.557-70.714-.003-18.34 18.34-19.419 47.498-3.249 67.117l-81.956 105.935c-3.114-1.098-6.459-1.701-9.944-1.701-16.542 0-30 13.458-30 30s13.458 30 30 30c.341 0 .681-.011 1.021-.023l45.174 103.401c-9.612 5.005-16.195 15.056-16.195 26.622v55.863c-3.419.089-6.764.137-10 .137-3.788 0-7.25 2.14-8.944 5.528l-17.236 34.472h-13.82c-5.523 0-10 4.478-10 10s4.477 10 10 10h78c5.523 0 10-4.478 10-10s-4.477-10-10-10h-41.82l10.025-20.05c4.625-.074 9.405-.229 14.28-.462 21.434-1.043 45.786-3.737 66.728-8.386 39.537-8.28 44.649-11.103 58.787-11.103 27.103 0 50 13.738 50 30 0 5.522 4.477 10 10 10s10-4.478 10-10c0-16.262 22.897-30 50-30 14.143 0 19.23 2.819 58.784 11.103 23.362 5.184 53.211 8.423 81.011 8.85l10.024 20.048h-169.82c-2.652 0-5.196 1.054-7.071 2.929l-17.071 17.071h-31.716l-17.071-17.071c-1.875-1.875-4.419-2.929-7.071-2.929h-38c-5.523 0-10 4.478-10 10s4.477 10 10 10h33.858l17.071 17.071c1.875 1.875 4.419 2.929 7.071 2.929h40c2.652 0 5.196-1.054 7.071-2.929l17.071-17.071h201.858c5.523 0 10-4.478 10-10s-4.476-10-9.999-10zm-221.291-301.791c-11.306 11.306-27.13 16.306-42.421 14.143l56.565-56.569c2.161 15.296-2.839 31.121-14.144 42.426zm-58.708-110.998c3.161.003 50.227-16.332 93.721 19.415l-126.588 126.598c-35.596-43.303-19.417-90.57-19.42-93.724zm-82.707-30.423c11.72-11.728 30.697-11.734 42.425.003l21.209 21.209-42.426 42.427-21.21-21.218c-11.695-11.694-11.695-30.723.002-42.421zm-109.294 197.212c-5.514 0-10-4.486-10-10s4.486-10 10-10 10 4.486 10 10c0 5.439-4.413 10-10 10zm70 202.985c-6.521.768-13.249 1.405-20 1.891v-54.876c0-5.507 4.475-9.988 9.979-9.999.009 0 .017.002.026.002s.018-.001.026-.001c5.5.017 9.969 4.495 9.969 9.999z"/></g></g></svg>